M48
; DRILL file {KiCad 8.0.6-8.0.6-0~ubuntu22.04.1} date 2024-11-21T18:36:15-0500
; FORMAT={-:-/ absolute / metric / decimal}
; #@! TF.CreationDate,2024-11-21T18:36:15-05:00
; #@! TF.GenerationSoftware,Kicad,Pcbnew,8.0.6-8.0.6-0~ubuntu22.04.1
; #@! TF.FileFunction,Plated,1,2,PTH
FMAT,2
METRIC
; #@! TA.AperFunction,Plated,PTH,ViaDrill
T1C0.300
; #@! TA.AperFunction,Plated,PTH,ComponentDrill
T2C0.800
; #@! TA.AperFunction,Plated,PTH,ComponentDrill
T3C1.200
; #@! TA.AperFunction,Plated,PTH,ComponentDrill
T4C1.300
; #@! TA.AperFunction,Plated,PTH,ComponentDrill
T5C1.600
; #@! TA.AperFunction,Plated,PTH,ComponentDrill
T6C3.000
; #@! TA.AperFunction,Plated,PTH,ComponentDrill
T7C3.048
%
G90
G05
T1
X26.5Y-62.75
X26.5Y-86.75
X28.5Y-110.5
X32.25Y-86.75
X32.25Y-103.0
X32.75Y-63.25
X37.0Y-76.0
X40.25Y-115.5
X42.0Y-38.0
X43.25Y-67.5
X43.5Y-84.25
X43.75Y-93.5
X46.0Y-104.5
X46.75Y-28.25
X46.75Y-61.0
X50.0Y-44.25
X50.75Y-86.75
X51.25Y-76.5
X53.25Y-96.0
X53.5Y-68.25
X53.75Y-38.25
X54.5Y-104.5
X57.25Y-80.25
X59.25Y-56.5
X60.0Y-26.75
X61.0Y-88.0
X61.25Y-44.0
X63.75Y-38.25
X64.5Y-72.25
X64.75Y-95.5
X64.75Y-121.5
X66.5Y-80.0
X70.25Y-87.5
X70.5Y-56.0
X70.75Y-62.75
X70.75Y-65.25
X70.75Y-67.5
X70.75Y-69.75
X70.75Y-103.0
X71.5Y-94.0
X71.5Y-96.5
X71.5Y-98.75
X72.75Y-38.0
X75.25Y-27.0
X75.25Y-116.5
X75.5Y-88.0
X75.58Y-107.0
X76.0Y-78.5
X76.25Y-33.5
X77.0Y-50.0
X77.25Y-36.75
X77.25Y-62.5
X78.0Y-67.5
X78.0Y-93.25
X78.25Y-34.25
X79.25Y-99.0
X80.25Y-41.75
X80.25Y-105.5
X80.75Y-75.75
X81.5Y-71.75
X81.5Y-81.5
X83.25Y-37.25
X83.75Y-54.75
X84.5Y-61.5
X84.5Y-122.25
X86.25Y-67.0
X86.5Y-111.5
X87.5Y-92.0
X89.75Y-81.5
X90.25Y-76.75
X91.5Y-47.0
X91.5Y-71.75
X93.0Y-53.0
X93.25Y-59.5
X97.25Y-81.75
X97.25Y-99.0
X98.0Y-106.75
X98.75Y-27.0
X99.0Y-64.25
X99.5Y-77.0
X100.0Y-40.0
X100.25Y-46.5
X100.25Y-52.5
X100.5Y-85.25
X101.25Y-71.0
X105.0Y-89.5
X105.25Y-56.75
X106.25Y-44.0
X106.75Y-27.25
X107.5Y-84.25
X108.5Y-67.5
X108.5Y-77.25
X109.5Y-115.5
X112.25Y-40.0
X114.25Y-93.25
X117.25Y-57.75
X117.25Y-67.5
X117.25Y-79.5
X117.5Y-49.5
X117.75Y-87.75
X120.0Y-45.0
X121.0Y-51.75
X121.25Y-93.0
X121.25Y-111.5
X121.5Y-68.0
T2
X70.5Y-46.25
X73.0Y-46.25
T3
X40.0Y-50.0
X40.0Y-100.0
X110.0Y-50.0
X110.0Y-100.0
T4
X56.0Y-116.0
X56.0Y-118.54
X94.0Y-116.0
X94.0Y-118.54
T5
X36.85Y-46.85
X36.85Y-53.15
X36.85Y-96.85
X36.85Y-103.15
X43.15Y-46.85
X43.15Y-53.15
X43.15Y-96.85
X43.15Y-103.15
X106.85Y-46.85
X106.85Y-53.15
X106.85Y-96.85
X106.85Y-103.15
X113.15Y-46.85
X113.15Y-53.15
X113.15Y-96.85
X113.15Y-103.15
T6
X60.0Y-35.0
X90.0Y-35.0
T7
X32.0Y-32.0
X32.0Y-118.0
X118.0Y-32.0
X118.0Y-118.0
M30
