G04 #@! TF.GenerationSoftware,KiCad,Pcbnew,8.0.6-8.0.6-0~ubuntu22.04.1*
G04 #@! TF.CreationDate,2024-11-21T18:35:31-05:00*
G04 #@! TF.ProjectId,metademo,6d657461-6465-46d6-9f2e-6b696361645f,rev?*
G04 #@! TF.SameCoordinates,Original*
G04 #@! TF.FileFunction,Legend,Top*
G04 #@! TF.FilePolarity,Positive*
%FSLAX46Y46*%
G04 Gerber Fmt 4.6, Leading zero omitted, Abs format (unit mm)*
G04 Created by KiCad (PCBNEW 8.0.6-8.0.6-0~ubuntu22.04.1) date 2024-11-21 18:35:31*
%MOMM*%
%LPD*%
G01*
G04 APERTURE LIST*
G04 Aperture macros list*
%AMRoundRect*
0 Rectangle with rounded corners*
0 $1 Rounding radius*
0 $2 $3 $4 $5 $6 $7 $8 $9 X,Y pos of 4 corners*
0 Add a 4 corners polygon primitive as box body*
4,1,4,$2,$3,$4,$5,$6,$7,$8,$9,$2,$3,0*
0 Add four circle primitives for the rounded corners*
1,1,$1+$1,$2,$3*
1,1,$1+$1,$4,$5*
1,1,$1+$1,$6,$7*
1,1,$1+$1,$8,$9*
0 Add four rect primitives between the rounded corners*
20,1,$1+$1,$2,$3,$4,$5,0*
20,1,$1+$1,$4,$5,$6,$7,0*
20,1,$1+$1,$6,$7,$8,$9,0*
20,1,$1+$1,$8,$9,$2,$3,0*%
G04 Aperture macros list end*
%ADD10C,0.300000*%
%ADD11C,0.150000*%
%ADD12C,0.254000*%
%ADD13C,0.100000*%
%ADD14C,0.200000*%
%ADD15C,0.127000*%
%ADD16C,0.120000*%
%ADD17RoundRect,0.059250X0.177750X-0.602750X0.177750X0.602750X-0.177750X0.602750X-0.177750X-0.602750X0*%
%ADD18C,2.154000*%
%ADD19C,1.100000*%
%ADD20C,1.500000*%
%ADD21C,2.004000*%
%ADD22C,2.604000*%
%ADD23RoundRect,0.102000X0.475000X1.075000X-0.475000X1.075000X-0.475000X-1.075000X0.475000X-1.075000X0*%
%ADD24RoundRect,0.102000X1.625000X1.075000X-1.625000X1.075000X-1.625000X-1.075000X1.625000X-1.075000X0*%
%ADD25R,0.600000X1.250000*%
%ADD26RoundRect,0.249999X-1.950001X-1.950001X1.950001X-1.950001X1.950001X1.950001X-1.950001X1.950001X0*%
%ADD27C,6.096000*%
%ADD28RoundRect,0.250000X0.337500X0.475000X-0.337500X0.475000X-0.337500X-0.475000X0.337500X-0.475000X0*%
%ADD29R,1.200000X1.200000*%
%ADD30C,1.200000*%
G04 APERTURE END LIST*
D10*
X92233082Y-108479400D02*
X92447368Y-108550828D01*
X92447368Y-108550828D02*
X92804510Y-108550828D01*
X92804510Y-108550828D02*
X92947368Y-108479400D01*
X92947368Y-108479400D02*
X93018796Y-108407971D01*
X93018796Y-108407971D02*
X93090225Y-108265114D01*
X93090225Y-108265114D02*
X93090225Y-108122257D01*
X93090225Y-108122257D02*
X93018796Y-107979400D01*
X93018796Y-107979400D02*
X92947368Y-107907971D01*
X92947368Y-107907971D02*
X92804510Y-107836542D01*
X92804510Y-107836542D02*
X92518796Y-107765114D01*
X92518796Y-107765114D02*
X92375939Y-107693685D01*
X92375939Y-107693685D02*
X92304510Y-107622257D01*
X92304510Y-107622257D02*
X92233082Y-107479400D01*
X92233082Y-107479400D02*
X92233082Y-107336542D01*
X92233082Y-107336542D02*
X92304510Y-107193685D01*
X92304510Y-107193685D02*
X92375939Y-107122257D01*
X92375939Y-107122257D02*
X92518796Y-107050828D01*
X92518796Y-107050828D02*
X92875939Y-107050828D01*
X92875939Y-107050828D02*
X93090225Y-107122257D01*
X94304510Y-108479400D02*
X94161653Y-108550828D01*
X94161653Y-108550828D02*
X93875939Y-108550828D01*
X93875939Y-108550828D02*
X93733081Y-108479400D01*
X93733081Y-108479400D02*
X93661653Y-108336542D01*
X93661653Y-108336542D02*
X93661653Y-107765114D01*
X93661653Y-107765114D02*
X93733081Y-107622257D01*
X93733081Y-107622257D02*
X93875939Y-107550828D01*
X93875939Y-107550828D02*
X94161653Y-107550828D01*
X94161653Y-107550828D02*
X94304510Y-107622257D01*
X94304510Y-107622257D02*
X94375939Y-107765114D01*
X94375939Y-107765114D02*
X94375939Y-107907971D01*
X94375939Y-107907971D02*
X93661653Y-108050828D01*
X94804510Y-107550828D02*
X95375938Y-107550828D01*
X95018795Y-107050828D02*
X95018795Y-108336542D01*
X95018795Y-108336542D02*
X95090224Y-108479400D01*
X95090224Y-108479400D02*
X95233081Y-108550828D01*
X95233081Y-108550828D02*
X95375938Y-108550828D01*
X54411653Y-108157971D02*
X54340225Y-108229400D01*
X54340225Y-108229400D02*
X54125939Y-108300828D01*
X54125939Y-108300828D02*
X53983082Y-108300828D01*
X53983082Y-108300828D02*
X53768796Y-108229400D01*
X53768796Y-108229400D02*
X53625939Y-108086542D01*
X53625939Y-108086542D02*
X53554510Y-107943685D01*
X53554510Y-107943685D02*
X53483082Y-107657971D01*
X53483082Y-107657971D02*
X53483082Y-107443685D01*
X53483082Y-107443685D02*
X53554510Y-107157971D01*
X53554510Y-107157971D02*
X53625939Y-107015114D01*
X53625939Y-107015114D02*
X53768796Y-106872257D01*
X53768796Y-106872257D02*
X53983082Y-106800828D01*
X53983082Y-106800828D02*
X54125939Y-106800828D01*
X54125939Y-106800828D02*
X54340225Y-106872257D01*
X54340225Y-106872257D02*
X54411653Y-106943685D01*
X55268796Y-108300828D02*
X55125939Y-108229400D01*
X55125939Y-108229400D02*
X55054510Y-108086542D01*
X55054510Y-108086542D02*
X55054510Y-106800828D01*
X56411653Y-108229400D02*
X56268796Y-108300828D01*
X56268796Y-108300828D02*
X55983082Y-108300828D01*
X55983082Y-108300828D02*
X55840224Y-108229400D01*
X55840224Y-108229400D02*
X55768796Y-108086542D01*
X55768796Y-108086542D02*
X55768796Y-107515114D01*
X55768796Y-107515114D02*
X55840224Y-107372257D01*
X55840224Y-107372257D02*
X55983082Y-107300828D01*
X55983082Y-107300828D02*
X56268796Y-107300828D01*
X56268796Y-107300828D02*
X56411653Y-107372257D01*
X56411653Y-107372257D02*
X56483082Y-107515114D01*
X56483082Y-107515114D02*
X56483082Y-107657971D01*
X56483082Y-107657971D02*
X55768796Y-107800828D01*
X57768796Y-108300828D02*
X57768796Y-107515114D01*
X57768796Y-107515114D02*
X57697367Y-107372257D01*
X57697367Y-107372257D02*
X57554510Y-107300828D01*
X57554510Y-107300828D02*
X57268796Y-107300828D01*
X57268796Y-107300828D02*
X57125938Y-107372257D01*
X57768796Y-108229400D02*
X57625938Y-108300828D01*
X57625938Y-108300828D02*
X57268796Y-108300828D01*
X57268796Y-108300828D02*
X57125938Y-108229400D01*
X57125938Y-108229400D02*
X57054510Y-108086542D01*
X57054510Y-108086542D02*
X57054510Y-107943685D01*
X57054510Y-107943685D02*
X57125938Y-107800828D01*
X57125938Y-107800828D02*
X57268796Y-107729400D01*
X57268796Y-107729400D02*
X57625938Y-107729400D01*
X57625938Y-107729400D02*
X57768796Y-107657971D01*
X58483081Y-108300828D02*
X58483081Y-107300828D01*
X58483081Y-107586542D02*
X58554510Y-107443685D01*
X58554510Y-107443685D02*
X58625939Y-107372257D01*
X58625939Y-107372257D02*
X58768796Y-107300828D01*
X58768796Y-107300828D02*
X58911653Y-107300828D01*
X64554510Y-35229400D02*
X65697368Y-35229400D01*
X65125939Y-35800828D02*
X65125939Y-34657971D01*
X67125939Y-34300828D02*
X66411653Y-34300828D01*
X66411653Y-34300828D02*
X66340225Y-35015114D01*
X66340225Y-35015114D02*
X66411653Y-34943685D01*
X66411653Y-34943685D02*
X66554511Y-34872257D01*
X66554511Y-34872257D02*
X66911653Y-34872257D01*
X66911653Y-34872257D02*
X67054511Y-34943685D01*
X67054511Y-34943685D02*
X67125939Y-35015114D01*
X67125939Y-35015114D02*
X67197368Y-35157971D01*
X67197368Y-35157971D02*
X67197368Y-35515114D01*
X67197368Y-35515114D02*
X67125939Y-35657971D01*
X67125939Y-35657971D02*
X67054511Y-35729400D01*
X67054511Y-35729400D02*
X66911653Y-35800828D01*
X66911653Y-35800828D02*
X66554511Y-35800828D01*
X66554511Y-35800828D02*
X66411653Y-35729400D01*
X66411653Y-35729400D02*
X66340225Y-35657971D01*
X67625939Y-34300828D02*
X68125939Y-35800828D01*
X68125939Y-35800828D02*
X68625939Y-34300828D01*
X96340225Y-34372257D02*
X96197368Y-34300828D01*
X96197368Y-34300828D02*
X95983082Y-34300828D01*
X95983082Y-34300828D02*
X95768796Y-34372257D01*
X95768796Y-34372257D02*
X95625939Y-34515114D01*
X95625939Y-34515114D02*
X95554510Y-34657971D01*
X95554510Y-34657971D02*
X95483082Y-34943685D01*
X95483082Y-34943685D02*
X95483082Y-35157971D01*
X95483082Y-35157971D02*
X95554510Y-35443685D01*
X95554510Y-35443685D02*
X95625939Y-35586542D01*
X95625939Y-35586542D02*
X95768796Y-35729400D01*
X95768796Y-35729400D02*
X95983082Y-35800828D01*
X95983082Y-35800828D02*
X96125939Y-35800828D01*
X96125939Y-35800828D02*
X96340225Y-35729400D01*
X96340225Y-35729400D02*
X96411653Y-35657971D01*
X96411653Y-35657971D02*
X96411653Y-35157971D01*
X96411653Y-35157971D02*
X96125939Y-35157971D01*
X97054510Y-35800828D02*
X97054510Y-34800828D01*
X97054510Y-35086542D02*
X97125939Y-34943685D01*
X97125939Y-34943685D02*
X97197368Y-34872257D01*
X97197368Y-34872257D02*
X97340225Y-34800828D01*
X97340225Y-34800828D02*
X97483082Y-34800828D01*
X98197367Y-35800828D02*
X98054510Y-35729400D01*
X98054510Y-35729400D02*
X97983081Y-35657971D01*
X97983081Y-35657971D02*
X97911653Y-35515114D01*
X97911653Y-35515114D02*
X97911653Y-35086542D01*
X97911653Y-35086542D02*
X97983081Y-34943685D01*
X97983081Y-34943685D02*
X98054510Y-34872257D01*
X98054510Y-34872257D02*
X98197367Y-34800828D01*
X98197367Y-34800828D02*
X98411653Y-34800828D01*
X98411653Y-34800828D02*
X98554510Y-34872257D01*
X98554510Y-34872257D02*
X98625939Y-34943685D01*
X98625939Y-34943685D02*
X98697367Y-35086542D01*
X98697367Y-35086542D02*
X98697367Y-35515114D01*
X98697367Y-35515114D02*
X98625939Y-35657971D01*
X98625939Y-35657971D02*
X98554510Y-35729400D01*
X98554510Y-35729400D02*
X98411653Y-35800828D01*
X98411653Y-35800828D02*
X98197367Y-35800828D01*
X99983082Y-34800828D02*
X99983082Y-35800828D01*
X99340224Y-34800828D02*
X99340224Y-35586542D01*
X99340224Y-35586542D02*
X99411653Y-35729400D01*
X99411653Y-35729400D02*
X99554510Y-35800828D01*
X99554510Y-35800828D02*
X99768796Y-35800828D01*
X99768796Y-35800828D02*
X99911653Y-35729400D01*
X99911653Y-35729400D02*
X99983082Y-35657971D01*
X100697367Y-34800828D02*
X100697367Y-35800828D01*
X100697367Y-34943685D02*
X100768796Y-34872257D01*
X100768796Y-34872257D02*
X100911653Y-34800828D01*
X100911653Y-34800828D02*
X101125939Y-34800828D01*
X101125939Y-34800828D02*
X101268796Y-34872257D01*
X101268796Y-34872257D02*
X101340225Y-35015114D01*
X101340225Y-35015114D02*
X101340225Y-35800828D01*
X102697368Y-35800828D02*
X102697368Y-34300828D01*
X102697368Y-35729400D02*
X102554510Y-35800828D01*
X102554510Y-35800828D02*
X102268796Y-35800828D01*
X102268796Y-35800828D02*
X102125939Y-35729400D01*
X102125939Y-35729400D02*
X102054510Y-35657971D01*
X102054510Y-35657971D02*
X101983082Y-35515114D01*
X101983082Y-35515114D02*
X101983082Y-35086542D01*
X101983082Y-35086542D02*
X102054510Y-34943685D01*
X102054510Y-34943685D02*
X102125939Y-34872257D01*
X102125939Y-34872257D02*
X102268796Y-34800828D01*
X102268796Y-34800828D02*
X102554510Y-34800828D01*
X102554510Y-34800828D02*
X102697368Y-34872257D01*
X110554510Y-108657971D02*
X110625939Y-108729400D01*
X110625939Y-108729400D02*
X110554510Y-108800828D01*
X110554510Y-108800828D02*
X110483082Y-108729400D01*
X110483082Y-108729400D02*
X110554510Y-108657971D01*
X110554510Y-108657971D02*
X110554510Y-108800828D01*
X110554510Y-108229400D02*
X110483082Y-107372257D01*
X110483082Y-107372257D02*
X110554510Y-107300828D01*
X110554510Y-107300828D02*
X110625939Y-107372257D01*
X110625939Y-107372257D02*
X110554510Y-108229400D01*
X110554510Y-108229400D02*
X110554510Y-107300828D01*
X112268796Y-108943685D02*
X112125939Y-108872257D01*
X112125939Y-108872257D02*
X111983082Y-108729400D01*
X111983082Y-108729400D02*
X111768796Y-108515114D01*
X111768796Y-108515114D02*
X111625939Y-108443685D01*
X111625939Y-108443685D02*
X111483082Y-108443685D01*
X111554511Y-108800828D02*
X111411654Y-108729400D01*
X111411654Y-108729400D02*
X111268796Y-108586542D01*
X111268796Y-108586542D02*
X111197368Y-108300828D01*
X111197368Y-108300828D02*
X111197368Y-107800828D01*
X111197368Y-107800828D02*
X111268796Y-107515114D01*
X111268796Y-107515114D02*
X111411654Y-107372257D01*
X111411654Y-107372257D02*
X111554511Y-107300828D01*
X111554511Y-107300828D02*
X111840225Y-107300828D01*
X111840225Y-107300828D02*
X111983082Y-107372257D01*
X111983082Y-107372257D02*
X112125939Y-107515114D01*
X112125939Y-107515114D02*
X112197368Y-107800828D01*
X112197368Y-107800828D02*
X112197368Y-108300828D01*
X112197368Y-108300828D02*
X112125939Y-108586542D01*
X112125939Y-108586542D02*
X111983082Y-108729400D01*
X111983082Y-108729400D02*
X111840225Y-108800828D01*
X111840225Y-108800828D02*
X111554511Y-108800828D01*
X111554510Y-58943685D02*
X111411653Y-58872257D01*
X111411653Y-58872257D02*
X111268796Y-58729400D01*
X111268796Y-58729400D02*
X111054510Y-58515114D01*
X111054510Y-58515114D02*
X110911653Y-58443685D01*
X110911653Y-58443685D02*
X110768796Y-58443685D01*
X110840225Y-58800828D02*
X110697368Y-58729400D01*
X110697368Y-58729400D02*
X110554510Y-58586542D01*
X110554510Y-58586542D02*
X110483082Y-58300828D01*
X110483082Y-58300828D02*
X110483082Y-57800828D01*
X110483082Y-57800828D02*
X110554510Y-57515114D01*
X110554510Y-57515114D02*
X110697368Y-57372257D01*
X110697368Y-57372257D02*
X110840225Y-57300828D01*
X110840225Y-57300828D02*
X111125939Y-57300828D01*
X111125939Y-57300828D02*
X111268796Y-57372257D01*
X111268796Y-57372257D02*
X111411653Y-57515114D01*
X111411653Y-57515114D02*
X111483082Y-57800828D01*
X111483082Y-57800828D02*
X111483082Y-58300828D01*
X111483082Y-58300828D02*
X111411653Y-58586542D01*
X111411653Y-58586542D02*
X111268796Y-58729400D01*
X111268796Y-58729400D02*
X111125939Y-58800828D01*
X111125939Y-58800828D02*
X110840225Y-58800828D01*
X36554510Y-58800828D02*
X36554510Y-57300828D01*
X36554510Y-57300828D02*
X36911653Y-57300828D01*
X36911653Y-57300828D02*
X37125939Y-57372257D01*
X37125939Y-57372257D02*
X37268796Y-57515114D01*
X37268796Y-57515114D02*
X37340225Y-57657971D01*
X37340225Y-57657971D02*
X37411653Y-57943685D01*
X37411653Y-57943685D02*
X37411653Y-58157971D01*
X37411653Y-58157971D02*
X37340225Y-58443685D01*
X37340225Y-58443685D02*
X37268796Y-58586542D01*
X37268796Y-58586542D02*
X37125939Y-58729400D01*
X37125939Y-58729400D02*
X36911653Y-58800828D01*
X36911653Y-58800828D02*
X36554510Y-58800828D01*
X38697368Y-58800828D02*
X38697368Y-58015114D01*
X38697368Y-58015114D02*
X38625939Y-57872257D01*
X38625939Y-57872257D02*
X38483082Y-57800828D01*
X38483082Y-57800828D02*
X38197368Y-57800828D01*
X38197368Y-57800828D02*
X38054510Y-57872257D01*
X38697368Y-58729400D02*
X38554510Y-58800828D01*
X38554510Y-58800828D02*
X38197368Y-58800828D01*
X38197368Y-58800828D02*
X38054510Y-58729400D01*
X38054510Y-58729400D02*
X37983082Y-58586542D01*
X37983082Y-58586542D02*
X37983082Y-58443685D01*
X37983082Y-58443685D02*
X38054510Y-58300828D01*
X38054510Y-58300828D02*
X38197368Y-58229400D01*
X38197368Y-58229400D02*
X38554510Y-58229400D01*
X38554510Y-58229400D02*
X38697368Y-58157971D01*
X39197368Y-57800828D02*
X39768796Y-57800828D01*
X39411653Y-57300828D02*
X39411653Y-58586542D01*
X39411653Y-58586542D02*
X39483082Y-58729400D01*
X39483082Y-58729400D02*
X39625939Y-58800828D01*
X39625939Y-58800828D02*
X39768796Y-58800828D01*
X40911654Y-58800828D02*
X40911654Y-58015114D01*
X40911654Y-58015114D02*
X40840225Y-57872257D01*
X40840225Y-57872257D02*
X40697368Y-57800828D01*
X40697368Y-57800828D02*
X40411654Y-57800828D01*
X40411654Y-57800828D02*
X40268796Y-57872257D01*
X40911654Y-58729400D02*
X40768796Y-58800828D01*
X40768796Y-58800828D02*
X40411654Y-58800828D01*
X40411654Y-58800828D02*
X40268796Y-58729400D01*
X40268796Y-58729400D02*
X40197368Y-58586542D01*
X40197368Y-58586542D02*
X40197368Y-58443685D01*
X40197368Y-58443685D02*
X40268796Y-58300828D01*
X40268796Y-58300828D02*
X40411654Y-58229400D01*
X40411654Y-58229400D02*
X40768796Y-58229400D01*
X40768796Y-58229400D02*
X40911654Y-58157971D01*
X38411653Y-108657971D02*
X38340225Y-108729400D01*
X38340225Y-108729400D02*
X38125939Y-108800828D01*
X38125939Y-108800828D02*
X37983082Y-108800828D01*
X37983082Y-108800828D02*
X37768796Y-108729400D01*
X37768796Y-108729400D02*
X37625939Y-108586542D01*
X37625939Y-108586542D02*
X37554510Y-108443685D01*
X37554510Y-108443685D02*
X37483082Y-108157971D01*
X37483082Y-108157971D02*
X37483082Y-107943685D01*
X37483082Y-107943685D02*
X37554510Y-107657971D01*
X37554510Y-107657971D02*
X37625939Y-107515114D01*
X37625939Y-107515114D02*
X37768796Y-107372257D01*
X37768796Y-107372257D02*
X37983082Y-107300828D01*
X37983082Y-107300828D02*
X38125939Y-107300828D01*
X38125939Y-107300828D02*
X38340225Y-107372257D01*
X38340225Y-107372257D02*
X38411653Y-107443685D01*
X39268796Y-108800828D02*
X39125939Y-108729400D01*
X39125939Y-108729400D02*
X39054510Y-108586542D01*
X39054510Y-108586542D02*
X39054510Y-107300828D01*
X40054510Y-108800828D02*
X39911653Y-108729400D01*
X39911653Y-108729400D02*
X39840224Y-108657971D01*
X39840224Y-108657971D02*
X39768796Y-108515114D01*
X39768796Y-108515114D02*
X39768796Y-108086542D01*
X39768796Y-108086542D02*
X39840224Y-107943685D01*
X39840224Y-107943685D02*
X39911653Y-107872257D01*
X39911653Y-107872257D02*
X40054510Y-107800828D01*
X40054510Y-107800828D02*
X40268796Y-107800828D01*
X40268796Y-107800828D02*
X40411653Y-107872257D01*
X40411653Y-107872257D02*
X40483082Y-107943685D01*
X40483082Y-107943685D02*
X40554510Y-108086542D01*
X40554510Y-108086542D02*
X40554510Y-108515114D01*
X40554510Y-108515114D02*
X40483082Y-108657971D01*
X40483082Y-108657971D02*
X40411653Y-108729400D01*
X40411653Y-108729400D02*
X40268796Y-108800828D01*
X40268796Y-108800828D02*
X40054510Y-108800828D01*
X41840225Y-108729400D02*
X41697367Y-108800828D01*
X41697367Y-108800828D02*
X41411653Y-108800828D01*
X41411653Y-108800828D02*
X41268796Y-108729400D01*
X41268796Y-108729400D02*
X41197367Y-108657971D01*
X41197367Y-108657971D02*
X41125939Y-108515114D01*
X41125939Y-108515114D02*
X41125939Y-108086542D01*
X41125939Y-108086542D02*
X41197367Y-107943685D01*
X41197367Y-107943685D02*
X41268796Y-107872257D01*
X41268796Y-107872257D02*
X41411653Y-107800828D01*
X41411653Y-107800828D02*
X41697367Y-107800828D01*
X41697367Y-107800828D02*
X41840225Y-107872257D01*
X42483081Y-108800828D02*
X42483081Y-107300828D01*
X42625939Y-108229400D02*
X43054510Y-108800828D01*
X43054510Y-107800828D02*
X42483081Y-108372257D01*
D11*
X72319819Y-74836904D02*
X73129342Y-74836904D01*
X73129342Y-74836904D02*
X73224580Y-74789285D01*
X73224580Y-74789285D02*
X73272200Y-74741666D01*
X73272200Y-74741666D02*
X73319819Y-74646428D01*
X73319819Y-74646428D02*
X73319819Y-74455952D01*
X73319819Y-74455952D02*
X73272200Y-74360714D01*
X73272200Y-74360714D02*
X73224580Y-74313095D01*
X73224580Y-74313095D02*
X73129342Y-74265476D01*
X73129342Y-74265476D02*
X72319819Y-74265476D01*
X73319819Y-73265476D02*
X73319819Y-73836904D01*
X73319819Y-73551190D02*
X72319819Y-73551190D01*
X72319819Y-73551190D02*
X72462676Y-73646428D01*
X72462676Y-73646428D02*
X72557914Y-73741666D01*
X72557914Y-73741666D02*
X72605533Y-73836904D01*
X86322200Y-120036904D02*
X86369819Y-119894047D01*
X86369819Y-119894047D02*
X86369819Y-119655952D01*
X86369819Y-119655952D02*
X86322200Y-119560714D01*
X86322200Y-119560714D02*
X86274580Y-119513095D01*
X86274580Y-119513095D02*
X86179342Y-119465476D01*
X86179342Y-119465476D02*
X86084104Y-119465476D01*
X86084104Y-119465476D02*
X85988866Y-119513095D01*
X85988866Y-119513095D02*
X85941247Y-119560714D01*
X85941247Y-119560714D02*
X85893628Y-119655952D01*
X85893628Y-119655952D02*
X85846009Y-119846428D01*
X85846009Y-119846428D02*
X85798390Y-119941666D01*
X85798390Y-119941666D02*
X85750771Y-119989285D01*
X85750771Y-119989285D02*
X85655533Y-120036904D01*
X85655533Y-120036904D02*
X85560295Y-120036904D01*
X85560295Y-120036904D02*
X85465057Y-119989285D01*
X85465057Y-119989285D02*
X85417438Y-119941666D01*
X85417438Y-119941666D02*
X85369819Y-119846428D01*
X85369819Y-119846428D02*
X85369819Y-119608333D01*
X85369819Y-119608333D02*
X85417438Y-119465476D01*
X85465057Y-119084523D02*
X85417438Y-119036904D01*
X85417438Y-119036904D02*
X85369819Y-118941666D01*
X85369819Y-118941666D02*
X85369819Y-118703571D01*
X85369819Y-118703571D02*
X85417438Y-118608333D01*
X85417438Y-118608333D02*
X85465057Y-118560714D01*
X85465057Y-118560714D02*
X85560295Y-118513095D01*
X85560295Y-118513095D02*
X85655533Y-118513095D01*
X85655533Y-118513095D02*
X85798390Y-118560714D01*
X85798390Y-118560714D02*
X86369819Y-119132142D01*
X86369819Y-119132142D02*
X86369819Y-118513095D01*
X48322200Y-120036904D02*
X48369819Y-119894047D01*
X48369819Y-119894047D02*
X48369819Y-119655952D01*
X48369819Y-119655952D02*
X48322200Y-119560714D01*
X48322200Y-119560714D02*
X48274580Y-119513095D01*
X48274580Y-119513095D02*
X48179342Y-119465476D01*
X48179342Y-119465476D02*
X48084104Y-119465476D01*
X48084104Y-119465476D02*
X47988866Y-119513095D01*
X47988866Y-119513095D02*
X47941247Y-119560714D01*
X47941247Y-119560714D02*
X47893628Y-119655952D01*
X47893628Y-119655952D02*
X47846009Y-119846428D01*
X47846009Y-119846428D02*
X47798390Y-119941666D01*
X47798390Y-119941666D02*
X47750771Y-119989285D01*
X47750771Y-119989285D02*
X47655533Y-120036904D01*
X47655533Y-120036904D02*
X47560295Y-120036904D01*
X47560295Y-120036904D02*
X47465057Y-119989285D01*
X47465057Y-119989285D02*
X47417438Y-119941666D01*
X47417438Y-119941666D02*
X47369819Y-119846428D01*
X47369819Y-119846428D02*
X47369819Y-119608333D01*
X47369819Y-119608333D02*
X47417438Y-119465476D01*
X48369819Y-118513095D02*
X48369819Y-119084523D01*
X48369819Y-118798809D02*
X47369819Y-118798809D01*
X47369819Y-118798809D02*
X47512676Y-118894047D01*
X47512676Y-118894047D02*
X47607914Y-118989285D01*
X47607914Y-118989285D02*
X47655533Y-119084523D01*
X108241666Y-42819819D02*
X108241666Y-43534104D01*
X108241666Y-43534104D02*
X108194047Y-43676961D01*
X108194047Y-43676961D02*
X108098809Y-43772200D01*
X108098809Y-43772200D02*
X107955952Y-43819819D01*
X107955952Y-43819819D02*
X107860714Y-43819819D01*
X109146428Y-43153152D02*
X109146428Y-43819819D01*
X108908333Y-42772200D02*
X108670238Y-43486485D01*
X108670238Y-43486485D02*
X109289285Y-43486485D01*
X108241666Y-92819819D02*
X108241666Y-93534104D01*
X108241666Y-93534104D02*
X108194047Y-93676961D01*
X108194047Y-93676961D02*
X108098809Y-93772200D01*
X108098809Y-93772200D02*
X107955952Y-93819819D01*
X107955952Y-93819819D02*
X107860714Y-93819819D01*
X108622619Y-92819819D02*
X109241666Y-92819819D01*
X109241666Y-92819819D02*
X108908333Y-93200771D01*
X108908333Y-93200771D02*
X109051190Y-93200771D01*
X109051190Y-93200771D02*
X109146428Y-93248390D01*
X109146428Y-93248390D02*
X109194047Y-93296009D01*
X109194047Y-93296009D02*
X109241666Y-93391247D01*
X109241666Y-93391247D02*
X109241666Y-93629342D01*
X109241666Y-93629342D02*
X109194047Y-93724580D01*
X109194047Y-93724580D02*
X109146428Y-93772200D01*
X109146428Y-93772200D02*
X109051190Y-93819819D01*
X109051190Y-93819819D02*
X108765476Y-93819819D01*
X108765476Y-93819819D02*
X108670238Y-93772200D01*
X108670238Y-93772200D02*
X108622619Y-93724580D01*
X38241666Y-42819819D02*
X38241666Y-43534104D01*
X38241666Y-43534104D02*
X38194047Y-43676961D01*
X38194047Y-43676961D02*
X38098809Y-43772200D01*
X38098809Y-43772200D02*
X37955952Y-43819819D01*
X37955952Y-43819819D02*
X37860714Y-43819819D01*
X38670238Y-42915057D02*
X38717857Y-42867438D01*
X38717857Y-42867438D02*
X38813095Y-42819819D01*
X38813095Y-42819819D02*
X39051190Y-42819819D01*
X39051190Y-42819819D02*
X39146428Y-42867438D01*
X39146428Y-42867438D02*
X39194047Y-42915057D01*
X39194047Y-42915057D02*
X39241666Y-43010295D01*
X39241666Y-43010295D02*
X39241666Y-43105533D01*
X39241666Y-43105533D02*
X39194047Y-43248390D01*
X39194047Y-43248390D02*
X38622619Y-43819819D01*
X38622619Y-43819819D02*
X39241666Y-43819819D01*
X38241666Y-92819819D02*
X38241666Y-93534104D01*
X38241666Y-93534104D02*
X38194047Y-93676961D01*
X38194047Y-93676961D02*
X38098809Y-93772200D01*
X38098809Y-93772200D02*
X37955952Y-93819819D01*
X37955952Y-93819819D02*
X37860714Y-93819819D01*
X39241666Y-93819819D02*
X38670238Y-93819819D01*
X38955952Y-93819819D02*
X38955952Y-92819819D01*
X38955952Y-92819819D02*
X38860714Y-92962676D01*
X38860714Y-92962676D02*
X38765476Y-93057914D01*
X38765476Y-93057914D02*
X38670238Y-93105533D01*
X80208819Y-38951189D02*
X79208819Y-38951189D01*
X80113580Y-37903571D02*
X80161200Y-37951190D01*
X80161200Y-37951190D02*
X80208819Y-38094047D01*
X80208819Y-38094047D02*
X80208819Y-38189285D01*
X80208819Y-38189285D02*
X80161200Y-38332142D01*
X80161200Y-38332142D02*
X80065961Y-38427380D01*
X80065961Y-38427380D02*
X79970723Y-38474999D01*
X79970723Y-38474999D02*
X79780247Y-38522618D01*
X79780247Y-38522618D02*
X79637390Y-38522618D01*
X79637390Y-38522618D02*
X79446914Y-38474999D01*
X79446914Y-38474999D02*
X79351676Y-38427380D01*
X79351676Y-38427380D02*
X79256438Y-38332142D01*
X79256438Y-38332142D02*
X79208819Y-38189285D01*
X79208819Y-38189285D02*
X79208819Y-38094047D01*
X79208819Y-38094047D02*
X79256438Y-37951190D01*
X79256438Y-37951190D02*
X79304057Y-37903571D01*
X79304057Y-37522618D02*
X79256438Y-37474999D01*
X79256438Y-37474999D02*
X79208819Y-37379761D01*
X79208819Y-37379761D02*
X79208819Y-37141666D01*
X79208819Y-37141666D02*
X79256438Y-37046428D01*
X79256438Y-37046428D02*
X79304057Y-36998809D01*
X79304057Y-36998809D02*
X79399295Y-36951190D01*
X79399295Y-36951190D02*
X79494533Y-36951190D01*
X79494533Y-36951190D02*
X79637390Y-36998809D01*
X79637390Y-36998809D02*
X80208819Y-37570237D01*
X80208819Y-37570237D02*
X80208819Y-36951190D01*
D12*
X76154318Y-103239762D02*
X74884318Y-103239762D01*
X76033365Y-101909285D02*
X76093842Y-101969761D01*
X76093842Y-101969761D02*
X76154318Y-102151190D01*
X76154318Y-102151190D02*
X76154318Y-102272142D01*
X76154318Y-102272142D02*
X76093842Y-102453571D01*
X76093842Y-102453571D02*
X75972889Y-102574523D01*
X75972889Y-102574523D02*
X75851937Y-102635000D01*
X75851937Y-102635000D02*
X75610032Y-102695476D01*
X75610032Y-102695476D02*
X75428603Y-102695476D01*
X75428603Y-102695476D02*
X75186699Y-102635000D01*
X75186699Y-102635000D02*
X75065746Y-102574523D01*
X75065746Y-102574523D02*
X74944794Y-102453571D01*
X74944794Y-102453571D02*
X74884318Y-102272142D01*
X74884318Y-102272142D02*
X74884318Y-102151190D01*
X74884318Y-102151190D02*
X74944794Y-101969761D01*
X74944794Y-101969761D02*
X75005270Y-101909285D01*
X76154318Y-100699761D02*
X76154318Y-101425476D01*
X76154318Y-101062619D02*
X74884318Y-101062619D01*
X74884318Y-101062619D02*
X75065746Y-101183571D01*
X75065746Y-101183571D02*
X75186699Y-101304523D01*
X75186699Y-101304523D02*
X75247175Y-101425476D01*
D11*
X89666666Y-31054819D02*
X89666666Y-31769104D01*
X89666666Y-31769104D02*
X89619047Y-31911961D01*
X89619047Y-31911961D02*
X89523809Y-32007200D01*
X89523809Y-32007200D02*
X89380952Y-32054819D01*
X89380952Y-32054819D02*
X89285714Y-32054819D01*
X90571428Y-31054819D02*
X90380952Y-31054819D01*
X90380952Y-31054819D02*
X90285714Y-31102438D01*
X90285714Y-31102438D02*
X90238095Y-31150057D01*
X90238095Y-31150057D02*
X90142857Y-31292914D01*
X90142857Y-31292914D02*
X90095238Y-31483390D01*
X90095238Y-31483390D02*
X90095238Y-31864342D01*
X90095238Y-31864342D02*
X90142857Y-31959580D01*
X90142857Y-31959580D02*
X90190476Y-32007200D01*
X90190476Y-32007200D02*
X90285714Y-32054819D01*
X90285714Y-32054819D02*
X90476190Y-32054819D01*
X90476190Y-32054819D02*
X90571428Y-32007200D01*
X90571428Y-32007200D02*
X90619047Y-31959580D01*
X90619047Y-31959580D02*
X90666666Y-31864342D01*
X90666666Y-31864342D02*
X90666666Y-31626247D01*
X90666666Y-31626247D02*
X90619047Y-31531009D01*
X90619047Y-31531009D02*
X90571428Y-31483390D01*
X90571428Y-31483390D02*
X90476190Y-31435771D01*
X90476190Y-31435771D02*
X90285714Y-31435771D01*
X90285714Y-31435771D02*
X90190476Y-31483390D01*
X90190476Y-31483390D02*
X90142857Y-31531009D01*
X90142857Y-31531009D02*
X90095238Y-31626247D01*
X59666666Y-31054819D02*
X59666666Y-31769104D01*
X59666666Y-31769104D02*
X59619047Y-31911961D01*
X59619047Y-31911961D02*
X59523809Y-32007200D01*
X59523809Y-32007200D02*
X59380952Y-32054819D01*
X59380952Y-32054819D02*
X59285714Y-32054819D01*
X60619047Y-31054819D02*
X60142857Y-31054819D01*
X60142857Y-31054819D02*
X60095238Y-31531009D01*
X60095238Y-31531009D02*
X60142857Y-31483390D01*
X60142857Y-31483390D02*
X60238095Y-31435771D01*
X60238095Y-31435771D02*
X60476190Y-31435771D01*
X60476190Y-31435771D02*
X60571428Y-31483390D01*
X60571428Y-31483390D02*
X60619047Y-31531009D01*
X60619047Y-31531009D02*
X60666666Y-31626247D01*
X60666666Y-31626247D02*
X60666666Y-31864342D01*
X60666666Y-31864342D02*
X60619047Y-31959580D01*
X60619047Y-31959580D02*
X60571428Y-32007200D01*
X60571428Y-32007200D02*
X60476190Y-32054819D01*
X60476190Y-32054819D02*
X60238095Y-32054819D01*
X60238095Y-32054819D02*
X60142857Y-32007200D01*
X60142857Y-32007200D02*
X60095238Y-31959580D01*
X70083333Y-64359580D02*
X70035714Y-64407200D01*
X70035714Y-64407200D02*
X69892857Y-64454819D01*
X69892857Y-64454819D02*
X69797619Y-64454819D01*
X69797619Y-64454819D02*
X69654762Y-64407200D01*
X69654762Y-64407200D02*
X69559524Y-64311961D01*
X69559524Y-64311961D02*
X69511905Y-64216723D01*
X69511905Y-64216723D02*
X69464286Y-64026247D01*
X69464286Y-64026247D02*
X69464286Y-63883390D01*
X69464286Y-63883390D02*
X69511905Y-63692914D01*
X69511905Y-63692914D02*
X69559524Y-63597676D01*
X69559524Y-63597676D02*
X69654762Y-63502438D01*
X69654762Y-63502438D02*
X69797619Y-63454819D01*
X69797619Y-63454819D02*
X69892857Y-63454819D01*
X69892857Y-63454819D02*
X70035714Y-63502438D01*
X70035714Y-63502438D02*
X70083333Y-63550057D01*
X70416667Y-63454819D02*
X71083333Y-63454819D01*
X71083333Y-63454819D02*
X70654762Y-64454819D01*
X70083333Y-66609580D02*
X70035714Y-66657200D01*
X70035714Y-66657200D02*
X69892857Y-66704819D01*
X69892857Y-66704819D02*
X69797619Y-66704819D01*
X69797619Y-66704819D02*
X69654762Y-66657200D01*
X69654762Y-66657200D02*
X69559524Y-66561961D01*
X69559524Y-66561961D02*
X69511905Y-66466723D01*
X69511905Y-66466723D02*
X69464286Y-66276247D01*
X69464286Y-66276247D02*
X69464286Y-66133390D01*
X69464286Y-66133390D02*
X69511905Y-65942914D01*
X69511905Y-65942914D02*
X69559524Y-65847676D01*
X69559524Y-65847676D02*
X69654762Y-65752438D01*
X69654762Y-65752438D02*
X69797619Y-65704819D01*
X69797619Y-65704819D02*
X69892857Y-65704819D01*
X69892857Y-65704819D02*
X70035714Y-65752438D01*
X70035714Y-65752438D02*
X70083333Y-65800057D01*
X70940476Y-65704819D02*
X70750000Y-65704819D01*
X70750000Y-65704819D02*
X70654762Y-65752438D01*
X70654762Y-65752438D02*
X70607143Y-65800057D01*
X70607143Y-65800057D02*
X70511905Y-65942914D01*
X70511905Y-65942914D02*
X70464286Y-66133390D01*
X70464286Y-66133390D02*
X70464286Y-66514342D01*
X70464286Y-66514342D02*
X70511905Y-66609580D01*
X70511905Y-66609580D02*
X70559524Y-66657200D01*
X70559524Y-66657200D02*
X70654762Y-66704819D01*
X70654762Y-66704819D02*
X70845238Y-66704819D01*
X70845238Y-66704819D02*
X70940476Y-66657200D01*
X70940476Y-66657200D02*
X70988095Y-66609580D01*
X70988095Y-66609580D02*
X71035714Y-66514342D01*
X71035714Y-66514342D02*
X71035714Y-66276247D01*
X71035714Y-66276247D02*
X70988095Y-66181009D01*
X70988095Y-66181009D02*
X70940476Y-66133390D01*
X70940476Y-66133390D02*
X70845238Y-66085771D01*
X70845238Y-66085771D02*
X70654762Y-66085771D01*
X70654762Y-66085771D02*
X70559524Y-66133390D01*
X70559524Y-66133390D02*
X70511905Y-66181009D01*
X70511905Y-66181009D02*
X70464286Y-66276247D01*
X70083333Y-68859580D02*
X70035714Y-68907200D01*
X70035714Y-68907200D02*
X69892857Y-68954819D01*
X69892857Y-68954819D02*
X69797619Y-68954819D01*
X69797619Y-68954819D02*
X69654762Y-68907200D01*
X69654762Y-68907200D02*
X69559524Y-68811961D01*
X69559524Y-68811961D02*
X69511905Y-68716723D01*
X69511905Y-68716723D02*
X69464286Y-68526247D01*
X69464286Y-68526247D02*
X69464286Y-68383390D01*
X69464286Y-68383390D02*
X69511905Y-68192914D01*
X69511905Y-68192914D02*
X69559524Y-68097676D01*
X69559524Y-68097676D02*
X69654762Y-68002438D01*
X69654762Y-68002438D02*
X69797619Y-67954819D01*
X69797619Y-67954819D02*
X69892857Y-67954819D01*
X69892857Y-67954819D02*
X70035714Y-68002438D01*
X70035714Y-68002438D02*
X70083333Y-68050057D01*
X70988095Y-67954819D02*
X70511905Y-67954819D01*
X70511905Y-67954819D02*
X70464286Y-68431009D01*
X70464286Y-68431009D02*
X70511905Y-68383390D01*
X70511905Y-68383390D02*
X70607143Y-68335771D01*
X70607143Y-68335771D02*
X70845238Y-68335771D01*
X70845238Y-68335771D02*
X70940476Y-68383390D01*
X70940476Y-68383390D02*
X70988095Y-68431009D01*
X70988095Y-68431009D02*
X71035714Y-68526247D01*
X71035714Y-68526247D02*
X71035714Y-68764342D01*
X71035714Y-68764342D02*
X70988095Y-68859580D01*
X70988095Y-68859580D02*
X70940476Y-68907200D01*
X70940476Y-68907200D02*
X70845238Y-68954819D01*
X70845238Y-68954819D02*
X70607143Y-68954819D01*
X70607143Y-68954819D02*
X70511905Y-68907200D01*
X70511905Y-68907200D02*
X70464286Y-68859580D01*
D12*
X76288333Y-46453365D02*
X76227857Y-46513842D01*
X76227857Y-46513842D02*
X76046428Y-46574318D01*
X76046428Y-46574318D02*
X75925476Y-46574318D01*
X75925476Y-46574318D02*
X75744047Y-46513842D01*
X75744047Y-46513842D02*
X75623095Y-46392889D01*
X75623095Y-46392889D02*
X75562618Y-46271937D01*
X75562618Y-46271937D02*
X75502142Y-46030032D01*
X75502142Y-46030032D02*
X75502142Y-45848603D01*
X75502142Y-45848603D02*
X75562618Y-45606699D01*
X75562618Y-45606699D02*
X75623095Y-45485746D01*
X75623095Y-45485746D02*
X75744047Y-45364794D01*
X75744047Y-45364794D02*
X75925476Y-45304318D01*
X75925476Y-45304318D02*
X76046428Y-45304318D01*
X76046428Y-45304318D02*
X76227857Y-45364794D01*
X76227857Y-45364794D02*
X76288333Y-45425270D01*
X77376904Y-45727651D02*
X77376904Y-46574318D01*
X77074523Y-45243842D02*
X76772142Y-46150984D01*
X76772142Y-46150984D02*
X77558333Y-46150984D01*
D13*
X75596115Y-48158533D02*
X74834211Y-48158533D01*
X75215163Y-47777580D02*
X75215163Y-48539485D01*
D11*
X71083333Y-93359580D02*
X71035714Y-93407200D01*
X71035714Y-93407200D02*
X70892857Y-93454819D01*
X70892857Y-93454819D02*
X70797619Y-93454819D01*
X70797619Y-93454819D02*
X70654762Y-93407200D01*
X70654762Y-93407200D02*
X70559524Y-93311961D01*
X70559524Y-93311961D02*
X70511905Y-93216723D01*
X70511905Y-93216723D02*
X70464286Y-93026247D01*
X70464286Y-93026247D02*
X70464286Y-92883390D01*
X70464286Y-92883390D02*
X70511905Y-92692914D01*
X70511905Y-92692914D02*
X70559524Y-92597676D01*
X70559524Y-92597676D02*
X70654762Y-92502438D01*
X70654762Y-92502438D02*
X70797619Y-92454819D01*
X70797619Y-92454819D02*
X70892857Y-92454819D01*
X70892857Y-92454819D02*
X71035714Y-92502438D01*
X71035714Y-92502438D02*
X71083333Y-92550057D01*
X71416667Y-92454819D02*
X72035714Y-92454819D01*
X72035714Y-92454819D02*
X71702381Y-92835771D01*
X71702381Y-92835771D02*
X71845238Y-92835771D01*
X71845238Y-92835771D02*
X71940476Y-92883390D01*
X71940476Y-92883390D02*
X71988095Y-92931009D01*
X71988095Y-92931009D02*
X72035714Y-93026247D01*
X72035714Y-93026247D02*
X72035714Y-93264342D01*
X72035714Y-93264342D02*
X71988095Y-93359580D01*
X71988095Y-93359580D02*
X71940476Y-93407200D01*
X71940476Y-93407200D02*
X71845238Y-93454819D01*
X71845238Y-93454819D02*
X71559524Y-93454819D01*
X71559524Y-93454819D02*
X71464286Y-93407200D01*
X71464286Y-93407200D02*
X71416667Y-93359580D01*
X71083333Y-95609580D02*
X71035714Y-95657200D01*
X71035714Y-95657200D02*
X70892857Y-95704819D01*
X70892857Y-95704819D02*
X70797619Y-95704819D01*
X70797619Y-95704819D02*
X70654762Y-95657200D01*
X70654762Y-95657200D02*
X70559524Y-95561961D01*
X70559524Y-95561961D02*
X70511905Y-95466723D01*
X70511905Y-95466723D02*
X70464286Y-95276247D01*
X70464286Y-95276247D02*
X70464286Y-95133390D01*
X70464286Y-95133390D02*
X70511905Y-94942914D01*
X70511905Y-94942914D02*
X70559524Y-94847676D01*
X70559524Y-94847676D02*
X70654762Y-94752438D01*
X70654762Y-94752438D02*
X70797619Y-94704819D01*
X70797619Y-94704819D02*
X70892857Y-94704819D01*
X70892857Y-94704819D02*
X71035714Y-94752438D01*
X71035714Y-94752438D02*
X71083333Y-94800057D01*
X71464286Y-94800057D02*
X71511905Y-94752438D01*
X71511905Y-94752438D02*
X71607143Y-94704819D01*
X71607143Y-94704819D02*
X71845238Y-94704819D01*
X71845238Y-94704819D02*
X71940476Y-94752438D01*
X71940476Y-94752438D02*
X71988095Y-94800057D01*
X71988095Y-94800057D02*
X72035714Y-94895295D01*
X72035714Y-94895295D02*
X72035714Y-94990533D01*
X72035714Y-94990533D02*
X71988095Y-95133390D01*
X71988095Y-95133390D02*
X71416667Y-95704819D01*
X71416667Y-95704819D02*
X72035714Y-95704819D01*
X71083333Y-97859580D02*
X71035714Y-97907200D01*
X71035714Y-97907200D02*
X70892857Y-97954819D01*
X70892857Y-97954819D02*
X70797619Y-97954819D01*
X70797619Y-97954819D02*
X70654762Y-97907200D01*
X70654762Y-97907200D02*
X70559524Y-97811961D01*
X70559524Y-97811961D02*
X70511905Y-97716723D01*
X70511905Y-97716723D02*
X70464286Y-97526247D01*
X70464286Y-97526247D02*
X70464286Y-97383390D01*
X70464286Y-97383390D02*
X70511905Y-97192914D01*
X70511905Y-97192914D02*
X70559524Y-97097676D01*
X70559524Y-97097676D02*
X70654762Y-97002438D01*
X70654762Y-97002438D02*
X70797619Y-96954819D01*
X70797619Y-96954819D02*
X70892857Y-96954819D01*
X70892857Y-96954819D02*
X71035714Y-97002438D01*
X71035714Y-97002438D02*
X71083333Y-97050057D01*
X72035714Y-97954819D02*
X71464286Y-97954819D01*
X71750000Y-97954819D02*
X71750000Y-96954819D01*
X71750000Y-96954819D02*
X71654762Y-97097676D01*
X71654762Y-97097676D02*
X71559524Y-97192914D01*
X71559524Y-97192914D02*
X71464286Y-97240533D01*
D14*
X74350000Y-77525000D02*
G75*
G02*
X74150000Y-77525000I-100000J0D01*
G01*
X74150000Y-77525000D02*
G75*
G02*
X74350000Y-77525000I100000J0D01*
G01*
D15*
X73795000Y-76150000D02*
X73795000Y-73850000D01*
X76205000Y-76150000D02*
X76205000Y-73850000D01*
X100200000Y-119300000D02*
G75*
G02*
X97300000Y-122200000I-2900000J0D01*
G01*
X90700000Y-122200000D02*
G75*
G02*
X87800000Y-119300000I0J2900000D01*
G01*
X87800000Y-112700000D02*
G75*
G02*
X90700000Y-109800000I2900000J0D01*
G01*
X97300000Y-109800000D02*
G75*
G02*
X100200000Y-112700000I0J-2900000D01*
G01*
X100200000Y-112700000D02*
X100200000Y-119300000D01*
X97300000Y-122200000D02*
X90700000Y-122200000D01*
X87800000Y-119300000D02*
X87800000Y-112700000D01*
X90700000Y-109800000D02*
X97300000Y-109800000D01*
X62200000Y-119300000D02*
G75*
G02*
X59300000Y-122200000I-2900000J0D01*
G01*
X52700000Y-122200000D02*
G75*
G02*
X49800000Y-119300000I0J2900000D01*
G01*
X49800000Y-112700000D02*
G75*
G02*
X52700000Y-109800000I2900000J0D01*
G01*
X59300000Y-109800000D02*
G75*
G02*
X62200000Y-112700000I0J-2900000D01*
G01*
X62200000Y-112700000D02*
X62200000Y-119300000D01*
X59300000Y-122200000D02*
X52700000Y-122200000D01*
X49800000Y-119300000D02*
X49800000Y-112700000D01*
X52700000Y-109800000D02*
X59300000Y-109800000D01*
X104500000Y-50000000D02*
G75*
G02*
X105320000Y-47110000I5399402J29322D01*
G01*
X115500000Y-50000000D02*
G75*
G02*
X114680000Y-52890000I-5399402J-29322D01*
G01*
X110000000Y-44500000D02*
G75*
G02*
X112890000Y-45320000I29322J-5399402D01*
G01*
X110000000Y-55500000D02*
G75*
G02*
X107110000Y-54680000I-29322J5399402D01*
G01*
X105320000Y-52890000D02*
G75*
G02*
X104500000Y-50000000I4680207J2889280D01*
G01*
X114680000Y-47110000D02*
G75*
G02*
X115500000Y-50000000I-4680207J-2889280D01*
G01*
X107110000Y-45320000D02*
G75*
G02*
X110000000Y-44500000I2889280J-4680207D01*
G01*
X112890000Y-54680000D02*
G75*
G02*
X110000000Y-55500000I-2889280J4680207D01*
G01*
X104500000Y-100000000D02*
G75*
G02*
X105320000Y-97110000I5399402J29322D01*
G01*
X115500000Y-100000000D02*
G75*
G02*
X114680000Y-102890000I-5399402J-29322D01*
G01*
X110000000Y-94500000D02*
G75*
G02*
X112890000Y-95320000I29322J-5399402D01*
G01*
X110000000Y-105500000D02*
G75*
G02*
X107110000Y-104680000I-29322J5399402D01*
G01*
X105320000Y-102890000D02*
G75*
G02*
X104500000Y-100000000I4680207J2889280D01*
G01*
X114680000Y-97110000D02*
G75*
G02*
X115500000Y-100000000I-4680207J-2889280D01*
G01*
X107110000Y-95320000D02*
G75*
G02*
X110000000Y-94500000I2889280J-4680207D01*
G01*
X112890000Y-104680000D02*
G75*
G02*
X110000000Y-105500000I-2889280J4680207D01*
G01*
X34500000Y-50000000D02*
G75*
G02*
X35320000Y-47110000I5399402J29322D01*
G01*
X45500000Y-50000000D02*
G75*
G02*
X44680000Y-52890000I-5399402J-29322D01*
G01*
X40000000Y-44500000D02*
G75*
G02*
X42890000Y-45320000I29322J-5399402D01*
G01*
X40000000Y-55500000D02*
G75*
G02*
X37110000Y-54680000I-29322J5399402D01*
G01*
X35320000Y-52890000D02*
G75*
G02*
X34500000Y-50000000I4680207J2889280D01*
G01*
X44680000Y-47110000D02*
G75*
G02*
X45500000Y-50000000I-4680207J-2889280D01*
G01*
X37110000Y-45320000D02*
G75*
G02*
X40000000Y-44500000I2889280J-4680207D01*
G01*
X42890000Y-54680000D02*
G75*
G02*
X40000000Y-55500000I-2889280J4680207D01*
G01*
X34500000Y-100000000D02*
G75*
G02*
X35320000Y-97110000I5399402J29322D01*
G01*
X45500000Y-100000000D02*
G75*
G02*
X44680000Y-102890000I-5399402J-29322D01*
G01*
X40000000Y-94500000D02*
G75*
G02*
X42890000Y-95320000I29322J-5399402D01*
G01*
X40000000Y-105500000D02*
G75*
G02*
X37110000Y-104680000I-29322J5399402D01*
G01*
X35320000Y-102890000D02*
G75*
G02*
X34500000Y-100000000I4680207J2889280D01*
G01*
X44680000Y-97110000D02*
G75*
G02*
X45500000Y-100000000I-4680207J-2889280D01*
G01*
X37110000Y-95320000D02*
G75*
G02*
X40000000Y-94500000I2889280J-4680207D01*
G01*
X42890000Y-104680000D02*
G75*
G02*
X40000000Y-105500000I-2889280J4680207D01*
G01*
X78250000Y-36250000D02*
X78250000Y-39750000D01*
X71750000Y-36250000D02*
X71750000Y-39750000D01*
X78250000Y-39750000D02*
X77010000Y-39750000D01*
X71750000Y-39750000D02*
X72990000Y-39750000D01*
D14*
X77400000Y-33400000D02*
G75*
G02*
X77200000Y-33400000I-100000J0D01*
G01*
X77200000Y-33400000D02*
G75*
G02*
X77400000Y-33400000I100000J0D01*
G01*
X74130000Y-102275000D02*
X74130000Y-101725000D01*
X74130000Y-101725000D02*
X77030000Y-101725000D01*
X77030000Y-101725000D02*
X77030000Y-102275000D01*
X77030000Y-102275000D02*
X74130000Y-102275000D01*
X73980000Y-103875000D02*
X73980000Y-102625000D01*
D16*
X73511252Y-63265000D02*
X72988748Y-63265000D01*
X73511252Y-64735000D02*
X72988748Y-64735000D01*
X73511252Y-65515000D02*
X72988748Y-65515000D01*
X73511252Y-66985000D02*
X72988748Y-66985000D01*
X73511252Y-67765000D02*
X72988748Y-67765000D01*
X73511252Y-69235000D02*
X72988748Y-69235000D01*
D14*
X74900000Y-46250000D02*
G75*
G02*
X68600000Y-46250000I-3150000J0D01*
G01*
X68600000Y-46250000D02*
G75*
G02*
X74900000Y-46250000I3150000J0D01*
G01*
D16*
X74511252Y-93735000D02*
X73988748Y-93735000D01*
X74511252Y-92265000D02*
X73988748Y-92265000D01*
X74511252Y-94515000D02*
X73988748Y-94515000D01*
X74511252Y-95985000D02*
X73988748Y-95985000D01*
X74511252Y-98235000D02*
X73988748Y-98235000D01*
X74511252Y-96765000D02*
X73988748Y-96765000D01*
%LPC*%
D17*
X74250000Y-76405000D03*
X74750000Y-76405000D03*
X75250000Y-76405000D03*
X75750000Y-76405000D03*
X75750000Y-73595000D03*
X75250000Y-73595000D03*
X74750000Y-73595000D03*
X74250000Y-73595000D03*
D18*
X94000000Y-116000000D03*
X94000000Y-118540000D03*
D19*
X98500000Y-120500000D03*
D20*
X89600000Y-120400000D03*
X98400000Y-111600000D03*
D18*
X56000000Y-116000000D03*
X56000000Y-118540000D03*
D19*
X60500000Y-120500000D03*
D20*
X51600000Y-120400000D03*
X60400000Y-111600000D03*
D21*
X110000000Y-50000000D03*
D22*
X113150000Y-46850000D03*
X113150000Y-53150000D03*
X106850000Y-53150000D03*
X106850000Y-46850000D03*
D21*
X110000000Y-100000000D03*
D22*
X113150000Y-96850000D03*
X113150000Y-103150000D03*
X106850000Y-103150000D03*
X106850000Y-96850000D03*
D21*
X40000000Y-50000000D03*
D22*
X43150000Y-46850000D03*
X43150000Y-53150000D03*
X36850000Y-53150000D03*
X36850000Y-46850000D03*
D21*
X40000000Y-100000000D03*
D22*
X43150000Y-96850000D03*
X43150000Y-103150000D03*
X36850000Y-103150000D03*
X36850000Y-96850000D03*
D23*
X77300000Y-35100000D03*
X75000000Y-35100000D03*
X72700000Y-35100000D03*
D24*
X75000000Y-40900000D03*
D25*
X74630000Y-103250000D03*
X75580000Y-103250000D03*
X76530000Y-103250000D03*
X76530000Y-100750000D03*
X75580000Y-100750000D03*
X74630000Y-100750000D03*
D26*
X90000000Y-35000000D03*
X60000000Y-35000000D03*
D27*
X118000000Y-118000000D03*
X118000000Y-32000000D03*
X32000000Y-118000000D03*
X32000000Y-32000000D03*
D28*
X72212500Y-64000000D03*
X74287500Y-64000000D03*
X72212500Y-66250000D03*
X74287500Y-66250000D03*
X72212500Y-68500000D03*
X74287500Y-68500000D03*
D29*
X73000000Y-46250000D03*
D30*
X70500000Y-46250000D03*
D28*
X75287500Y-93000000D03*
X73212500Y-93000000D03*
X73212500Y-95250000D03*
X75287500Y-95250000D03*
X75287500Y-97500000D03*
X73212500Y-97500000D03*
%LPD*%
M02*
